<svg xmlns="http://www.w3.org/2000/svg" viewBox="0 0 800 500" width="800" height="500">
    <defs>
        <linearGradient id="tt-bg" x1="0%" y1="0%" x2="100%" y2="100%">
            <stop offset="0%" stop-color="#eef4ff"/>
            <stop offset="100%" stop-color="#dbe7ff"/>
        </linearGradient>
        <linearGradient id="tt-ac" x1="0%" y1="0%" x2="100%" y2="100%">
            <stop offset="0%" stop-color="#2563eb"/>
            <stop offset="100%" stop-color="#1e40af"/>
        </linearGradient>
    </defs>
    <rect width="800" height="500" fill="url(#tt-bg)"/>
    <circle cx="680" cy="120" r="120" fill="#fde68a" opacity="0.6"/>

    <rect x="0" y="0" width="800" height="32" fill="#ffffff"/>
    <circle cx="18" cy="16" r="5" fill="#ff5f57"/>
    <circle cx="36" cy="16" r="5" fill="#febc2e"/>
    <circle cx="54" cy="16" r="5" fill="#28c840"/>
    <rect x="280" y="8" width="240" height="16" rx="4" fill="#e0eaff"/>

    <g transform="translate(40, 60)">
        <rect x="0" y="2" width="28" height="28" rx="6" fill="url(#tt-ac)"/>
        <text x="14" y="22" text-anchor="middle" fill="#fff" font-family="Inter,sans-serif" font-weight="800" font-size="14">T</text>
        <text x="36" y="22" fill="#1e3a8a" font-family="Inter,sans-serif" font-weight="700" font-size="15">Think Tank Tutors</text>
        <g font-family="Inter,sans-serif" font-size="10" fill="#3b5380" font-weight="500">
            <text x="470" y="22">Subjects</text>
            <text x="525" y="22">Tutors</text>
            <text x="570" y="22">Pricing</text>
            <text x="617" y="22">Login</text>
        </g>
        <rect x="660" y="6" width="90" height="22" rx="11" fill="url(#tt-ac)"/>
        <text x="705" y="21" text-anchor="middle" fill="#fff" font-family="Inter,sans-serif" font-weight="600" font-size="10">Book a Trial</text>
    </g>

    <g transform="translate(40, 120)">
        <rect width="170" height="24" rx="12" fill="#fff" stroke="#2563eb" stroke-opacity="0.3"/>
        <text x="14" y="16" fill="#1e40af" font-family="Inter,sans-serif" font-size="9" font-weight="600">★ RATED #1 BY 2,400+ FAMILIES</text>
        <text x="0" y="58" fill="#1e3a8a" font-family="Georgia,serif" font-weight="700" font-size="38" letter-spacing="-1">Tutoring that</text>
        <text x="0" y="100" fill="url(#tt-ac)" font-family="Georgia,serif" font-style="italic" font-weight="700" font-size="38" letter-spacing="-1">builds confidence.</text>
        <text x="0" y="130" fill="#3b5380" font-family="Inter,sans-serif" font-size="12">One-on-one online tutoring across all K–12 subjects.</text>
        <rect x="0" y="150" width="140" height="40" rx="20" fill="url(#tt-ac)"/>
        <text x="70" y="175" text-anchor="middle" fill="#fff" font-family="Inter,sans-serif" font-weight="600" font-size="11">Find Your Tutor →</text>
    </g>

    <g transform="translate(40, 360)">
        <rect width="170" height="110" rx="12" fill="#fff" stroke="#dbe7ff"/>
        <circle cx="32" cy="32" r="18" fill="#fde68a"/>
        <text x="32" y="37" text-anchor="middle" fill="#92400e" font-family="Inter,sans-serif" font-weight="700" font-size="12">M</text>
        <text x="62" y="28" fill="#1e3a8a" font-family="Inter,sans-serif" font-weight="700" font-size="12">Math</text>
        <text x="62" y="44" fill="#3b5380" font-family="Inter,sans-serif" font-size="9">120+ tutors</text>
        <rect x="14" y="68" width="80" height="6" rx="3" fill="#dbe7ff"/>
        <rect x="14" y="68" width="64" height="6" rx="3" fill="url(#tt-ac)"/>
        <text x="14" y="92" fill="#3b5380" font-family="Inter,sans-serif" font-size="9">From $35/hr</text>

        <g transform="translate(190, 0)">
            <rect width="170" height="110" rx="12" fill="#fff" stroke="#dbe7ff"/>
            <circle cx="32" cy="32" r="18" fill="#bbf7d0"/>
            <text x="32" y="37" text-anchor="middle" fill="#166534" font-family="Inter,sans-serif" font-weight="700" font-size="12">S</text>
            <text x="62" y="28" fill="#1e3a8a" font-family="Inter,sans-serif" font-weight="700" font-size="12">Science</text>
            <text x="62" y="44" fill="#3b5380" font-family="Inter,sans-serif" font-size="9">85+ tutors</text>
            <rect x="14" y="68" width="80" height="6" rx="3" fill="#dbe7ff"/>
            <rect x="14" y="68" width="52" height="6" rx="3" fill="url(#tt-ac)"/>
            <text x="14" y="92" fill="#3b5380" font-family="Inter,sans-serif" font-size="9">From $38/hr</text>
        </g>
        <g transform="translate(380, 0)">
            <rect width="170" height="110" rx="12" fill="#fff" stroke="#dbe7ff"/>
            <circle cx="32" cy="32" r="18" fill="#fecaca"/>
            <text x="32" y="37" text-anchor="middle" fill="#991b1b" font-family="Inter,sans-serif" font-weight="700" font-size="12">E</text>
            <text x="62" y="28" fill="#1e3a8a" font-family="Inter,sans-serif" font-weight="700" font-size="12">English</text>
            <text x="62" y="44" fill="#3b5380" font-family="Inter,sans-serif" font-size="9">95+ tutors</text>
            <rect x="14" y="68" width="80" height="6" rx="3" fill="#dbe7ff"/>
            <rect x="14" y="68" width="72" height="6" rx="3" fill="url(#tt-ac)"/>
            <text x="14" y="92" fill="#3b5380" font-family="Inter,sans-serif" font-size="9">From $32/hr</text>
        </g>
        <g transform="translate(570, 0)">
            <rect width="170" height="110" rx="12" fill="url(#tt-ac)"/>
            <text x="14" y="32" fill="#fff" font-family="Inter,sans-serif" font-weight="700" font-size="14">SAT Prep</text>
            <text x="14" y="50" fill="#dbe7ff" font-family="Inter,sans-serif" font-size="10">Bootcamp series</text>
            <text x="14" y="80" fill="#fff" font-family="Inter,sans-serif" font-weight="700" font-size="20">+140 pts</text>
            <text x="14" y="96" fill="#dbe7ff" font-family="Inter,sans-serif" font-size="9">Avg improvement</text>
        </g>
    </g>
</svg>
